# xmcd
#
# Track frame offsets:
#	150
#	12574
#	33919
#	52424
#	67863
#	86862
#	99371
#	119903
#	137151
#	152678
#	165901
#	178885
#	194983
#	206284
#	224670
#	244554
#	267912
#	284459
#	301369
#	314893
#	324983
#	337063
#
# Disc length: 4760 seconds
# Revision: 0
# Processed by: cddbd v1.5.2PL0 Copyright (c) Steve Scherf et al.
# Submitted via: dBpowerAMP V12.0
#
DISCID=5c129616
DTITLE=Юрий Шкитун - Времечко
DYEAR=2007
DGENRE=Chanson
TTITLE0=Сердечко
TTITLE1=Танцуй, девочуа
TTITLE2=Мадам
TTITLE3=Топай, топай
TTITLE4=Капелька дождя
TTITLE5=Времечко
TTITLE6=Любимый
TTITLE7=Подкралась осень
TTITLE8=Радуйся, родной!
TTITLE9=Спасибо, мама
TTITLE10=Лети, мечта моя
TTITLE11=Прямо руля
TTITLE12=Не сегодня
TTITLE13=Запорошенный сад
TTITLE14=Одиночество
TTITLE15=Дальний путь
TTITLE16=В плен
TTITLE17=Люли, люли
TTITLE18=Девишник
TTITLE19=Розовые ноги
TTITLE20=Скука Генерал
TTITLE21=Ветер-бродяга
EXTD=
EXTT0=
EXTT1=
EXTT2=
EXTT3=
EXTT4=
EXTT5=
EXTT6=
EXTT7=
EXTT8=
EXTT9=
EXTT10=
EXTT11=
EXTT12=
EXTT13=
EXTT14=
EXTT15=
EXTT16=
EXTT17=
EXTT18=
EXTT19=
EXTT20=
EXTT21=
PLAYORDER=
